<svg width="86" height="85" viewBox="0 0 86 85" fill="none" xmlns="http://www.w3.org/2000/svg">
<path d="M57 21.25C57 19.3713 57.7463 17.5697 59.0747 16.2413C60.403 14.9129 62.2047 14.1666 64.0833 14.1666C65.962 14.1666 67.7636 14.9129 69.092 16.2413C70.4204 17.5697 71.1667 19.3713 71.1667 21.25C71.1667 23.1286 70.4204 24.9303 69.092 26.2586C67.7636 27.587 65.962 28.3333 64.0833 28.3333C62.2047 28.3333 60.403 27.587 59.0747 26.2586C57.7463 24.9303 57 23.1286 57 21.25ZM21.5833 35.4166C19.7047 35.4166 17.903 36.1629 16.5747 37.4913C15.2463 38.8197 14.5 40.6213 14.5 42.5C14.5 44.3786 15.2463 46.1802 16.5747 47.5086C17.903 48.837 19.7047 49.5833 21.5833 49.5833C23.462 49.5833 25.2636 48.837 26.592 47.5086C27.9204 46.1802 28.6667 44.3786 28.6667 42.5C28.6667 40.6213 27.9204 38.8197 26.592 37.4913C25.2636 36.1629 23.462 35.4166 21.5833 35.4166ZM64.0833 56.6666C62.2047 56.6666 60.403 57.4129 59.0747 58.7413C57.7463 60.0697 57 61.8713 57 63.75C57 65.6286 57.7463 67.4302 59.0747 68.7586C60.403 70.087 62.2047 70.8333 64.0833 70.8333C65.962 70.8333 67.7636 70.087 69.092 68.7586C70.4204 67.4302 71.1667 65.6286 71.1667 63.75C71.1667 61.8713 70.4204 60.0697 69.092 58.7413C67.7636 57.4129 65.962 56.6666 64.0833 56.6666Z" fill="#51B1FF"/>
<path fillRule="evenodd" clipRule="evenodd" d="M62.5959 4.74234C63.5826 4.60282 64.5841 4.60282 65.5709 4.74234C67.6286 5.03275 69.4667 6.09879 71.5563 7.3065L71.9883 7.55796L72.424 7.80588C74.5136 9.01004 76.3552 10.0725 77.6373 11.7088C78.2512 12.495 78.747 13.3533 79.1248 14.2836C79.904 16.2138 79.8969 18.3388 79.8934 20.7471V21.753C79.8969 24.1613 79.9004 26.2863 79.1213 28.2165C78.7486 29.1403 78.2478 30.007 77.6338 30.7913C76.3552 32.4311 74.51 33.49 72.424 34.6907L71.9883 34.9421L71.5527 35.1936C69.4702 36.3978 67.6286 37.4673 65.5673 37.7578C64.5829 37.8966 63.5838 37.8966 62.5994 37.7578C60.5381 37.4673 58.6965 36.4013 56.614 35.1936L56.1784 34.9421L55.7427 34.6942C53.6531 33.49 51.8115 32.4275 50.5294 30.7913C49.9153 30.007 49.4146 29.1403 49.0419 28.2165C48.2627 26.2863 48.2698 24.1613 48.2734 21.753V21.25H32.2084C30.5084 21.25 29.4104 21.25 28.5746 21.3103C27.7671 21.3634 27.459 21.459 27.3102 21.5192C26.4442 21.8794 25.7563 22.5685 25.3977 23.4353C25.334 23.584 25.2384 23.8921 25.1852 24.6996C25.1486 25.3128 25.1297 25.927 25.1286 26.5413C26.4213 27.03 27.6856 27.7632 29.0527 28.5565L29.4884 28.808L29.924 29.0559C32.0136 30.26 33.8552 31.3225 35.1373 32.9588C35.7514 33.7431 36.2521 34.6098 36.6248 35.5336C37.404 37.4638 37.3969 39.5888 37.3934 41.9971V43.003C37.3969 45.4113 37.4004 47.5363 36.6213 49.4665C36.2486 50.3903 35.7478 51.257 35.1338 52.0413C33.8552 53.6811 32.01 54.74 29.924 55.9407L29.4884 56.1921L29.0527 56.4436C27.6856 57.2369 26.4213 57.9665 25.1286 58.4623C25.1356 59.2132 25.1498 59.8011 25.1852 60.304C25.2384 61.108 25.334 61.4161 25.3977 61.5648C25.7571 62.4302 26.4448 63.118 27.3102 63.4773C27.459 63.5411 27.7671 63.6367 28.5746 63.6898C29.4104 63.75 30.5084 63.75 32.2084 63.75H48.2734V63.2471C48.2698 60.8388 48.2663 58.7138 49.0454 56.7836C49.4181 55.8598 49.9189 54.9931 50.5329 54.2088C51.8115 52.569 53.6567 51.51 55.7427 50.3094L56.1784 50.058L56.614 49.8065C58.6965 48.5988 60.5381 47.5327 62.5994 47.2423C63.5838 47.1035 64.5829 47.1035 65.5673 47.2423C67.6286 47.5327 69.4702 48.5988 71.5527 49.8065L71.9883 50.058L72.424 50.3059C74.5136 51.51 76.3552 52.5725 77.6373 54.2088C78.2514 54.9931 78.7521 55.8598 79.1248 56.7836C79.904 58.7138 79.8969 60.8388 79.8934 63.2471V64.253C79.8969 66.6613 79.9004 68.7863 79.1213 70.7165C78.7486 71.6403 78.2478 72.507 77.6338 73.2913C76.3552 74.9311 74.51 75.9901 72.424 77.1907L71.9883 77.4421L71.5527 77.6936C69.4702 78.8978 67.6286 79.9673 65.5673 80.2578C64.5829 80.3966 63.5838 80.3966 62.5994 80.2578C60.5381 79.9673 58.6965 78.9013 56.614 77.6936L56.1784 77.4421L55.7427 77.1942C53.6531 75.99 51.8115 74.9276 50.5294 73.2913C49.942 72.5402 49.4583 71.7135 49.0915 70.8334H32.095C30.5402 70.8334 29.2015 70.8334 28.0929 70.759C26.8959 70.7132 25.7152 70.4654 24.6009 70.0259C23.3114 69.4919 22.1397 68.7091 21.1528 67.7222C20.1659 66.7354 19.3832 65.5637 18.8492 64.2742C18.4097 63.1598 18.1618 61.9792 18.1161 60.7821C18.0695 60.0109 18.0459 59.2385 18.0452 58.4659C16.7525 57.97 15.4846 57.2405 14.114 56.4436L13.6784 56.1921L13.2427 55.9442C11.1531 54.74 9.31148 53.6775 8.02939 52.0413C7.41532 51.257 6.91458 50.3903 6.54189 49.4665C5.76273 47.5363 5.76981 45.4113 5.77335 43.003V41.9971C5.76981 39.5888 5.76627 37.4638 6.54544 35.5336C6.91812 34.6098 7.41886 33.7431 8.03294 32.9588C9.31148 31.319 11.1567 30.26 13.2427 29.0594L13.6784 28.808L14.114 28.5565C15.4846 27.7596 16.7525 27.0265 18.0452 26.5378C18.0499 25.6759 18.0736 24.9027 18.1161 24.218C18.1975 23.0492 18.3711 21.8805 18.8492 20.7259C19.3832 19.4364 20.1659 18.2647 21.1528 17.2778C22.1397 16.291 23.3114 15.5082 24.6009 14.9742C25.7152 14.5347 26.8959 14.2869 28.0929 14.2411C29.1979 14.1667 30.5402 14.1667 32.095 14.1667H49.095C49.4608 13.2868 49.9432 12.4601 50.5294 11.7088C51.8115 10.069 53.6567 9.01004 55.7427 7.80942L56.1784 7.55796L56.614 7.3065C58.6965 6.09879 60.5346 5.03275 62.5959 4.74234ZM64.5827 11.7548C64.2538 11.7083 63.92 11.7083 63.5911 11.7548C63.074 11.8257 62.5002 12.0878 59.7236 13.6921C56.9469 15.2965 56.4334 15.6613 56.1111 16.0721C55.9062 16.3343 55.7393 16.624 55.6152 16.9328C55.4204 17.418 55.3602 18.0413 55.3602 21.25C55.3602 24.4588 55.4204 25.0821 55.6152 25.5709C55.7399 25.8771 55.9067 26.1644 56.1111 26.4244C56.4334 26.8388 56.9469 27.2036 59.7236 28.808C62.5002 30.4123 63.074 30.6709 63.5911 30.7453C63.92 30.7918 64.2538 30.7918 64.5827 30.7453C65.0998 30.6744 65.6736 30.4123 68.4502 28.808C71.2269 27.2036 71.7369 26.8388 72.0627 26.4244C72.2673 26.1634 72.4342 25.8748 72.5586 25.5673C72.7533 25.0821 72.8136 24.4588 72.8136 21.25C72.8136 18.0413 72.7533 17.418 72.5586 16.9292C72.4342 16.6217 72.2673 16.3332 72.0627 16.0721C71.7404 15.6613 71.2269 15.293 68.4502 13.6921C65.6736 12.0913 65.0998 11.8292 64.5827 11.7548ZM21.0911 33.0048C21.42 32.9583 21.7538 32.9583 22.0827 33.0048C22.5998 33.0757 23.1736 33.3378 25.9502 34.9421C28.7269 36.5465 29.2404 36.9113 29.5627 37.3257C29.7673 37.5867 29.9342 37.8752 30.0586 38.1828C30.2534 38.668 30.3136 39.2913 30.3136 42.5C30.3136 45.7088 30.2534 46.3321 30.0586 46.8209C29.9339 47.1271 29.767 47.4144 29.5627 47.6744C29.2404 48.0888 28.7269 48.4536 25.9502 50.058C23.1736 51.6623 22.5998 51.9209 22.0827 51.9953C21.7538 52.0418 21.42 52.0418 21.0911 51.9953C20.574 51.9244 20.0002 51.6623 17.2236 50.058C14.4469 48.4536 13.9334 48.0888 13.6111 47.6744C13.4065 47.4134 13.2396 47.1248 13.1152 46.8173C12.9204 46.3321 12.8602 45.7088 12.8602 42.5C12.8602 39.2913 12.9204 38.668 13.1152 38.1792C13.2399 37.8729 13.4068 37.5856 13.6111 37.3257C13.9334 36.9113 14.4469 36.5465 17.2236 34.9421C20.0002 33.3378 20.574 33.0792 21.0911 33.0048ZM64.5827 54.2548C65.0998 54.3257 65.6736 54.5878 68.4502 56.1921C71.2269 57.7965 71.7369 58.1613 72.0627 58.5721C72.2676 58.8343 72.4345 59.124 72.5586 59.4328C72.7533 59.918 72.8136 60.5413 72.8136 63.75C72.8136 66.9588 72.7533 67.5821 72.5586 68.0709C72.4342 68.3784 72.2673 68.6669 72.0627 68.928C71.7404 69.3388 71.2269 69.7071 68.4502 71.308C65.6736 72.9088 65.0998 73.1709 64.5827 73.2453C64.2538 73.2918 63.92 73.2918 63.5911 73.2453C63.074 73.1744 62.5002 72.9123 59.7236 71.308C56.9469 69.7036 56.4334 69.3388 56.1111 68.928C55.9062 68.6658 55.7393 68.3761 55.6152 68.0673C55.4204 67.5821 55.3602 66.9588 55.3602 63.75C55.3602 60.5413 55.4204 59.918 55.6152 59.4292C55.7396 59.1217 55.9065 58.8332 56.1111 58.5721C56.4334 58.1613 56.9469 57.793 59.7236 56.1921C62.5002 54.5913 63.074 54.3292 63.5911 54.2548C63.92 54.2083 64.2538 54.2083 64.5827 54.2548Z" fill="#51B1FF"/>
</svg>
