<svg width="84" height="83" viewBox="0 0 84 83" fill="none" xmlns="http://www.w3.org/2000/svg">
<path d="M36.1187 8.4266C32.5272 12.137 29.9651 16.8498 28.8926 22.1046L28.3333 21.5453L22.2198 27.6588L26.8504 32.2894C22.3007 35.3196 18.6995 39.6608 16.5865 44.774C11.1487 41.0327 7.58331 34.7659 7.58331 27.6666C7.58331 16.2067 16.8734 6.91663 28.3333 6.91663C31.0866 6.91663 33.7146 7.45288 36.1187 8.4266ZM35.2676 28.5337C35.2559 28.2461 35.25 27.9571 35.25 27.6666C35.25 16.2067 44.5401 6.91663 56 6.91663C67.4599 6.91663 76.75 16.2067 76.75 27.6666C76.75 34.7659 73.1848 41.0327 67.7469 44.774C65.7618 39.9703 62.4633 35.848 58.2987 32.8541H61.6962L62.9166 31.0232L57.2204 22.4791H54.7795L50.4749 28.9358C47.8525 28.1112 45.0613 27.6666 42.1666 27.6666C39.7849 27.6666 37.473 27.9676 35.2676 28.5337Z" fill="#51B1FF"/>
<path fillRule="evenodd" clipRule="evenodd" d="M42.1666 76.0834C53.6265 76.0834 62.9166 66.7933 62.9166 55.3334C62.9166 43.8735 53.6265 34.5834 42.1666 34.5834C30.7067 34.5834 21.4166 43.8735 21.4166 55.3334C21.4166 66.7933 30.7067 76.0834 42.1666 76.0834ZM48.1568 51.875L42.1666 48.4167L36.1764 51.875V58.7917L42.1666 62.25L48.1568 58.7917V51.875Z" fill="#51B1FF"/>
</svg>
