<svg width="42" height="43" viewBox="0 0 42 43" fill="none" xmlns="http://www.w3.org/2000/svg">
<path d="M14.6311 1.4143C10.4346 2.90475 6.81562 5.73367 4.30562 9.48554C1.79562 13.2374 0.526938 17.7145 0.685917 22.2591C0.844897 26.8037 2.42316 31.1764 5.18889 34.7348C7.95462 38.2933 11.762 40.8499 16.0519 42.0291C19.5297 42.9479 23.1735 42.9883 26.67 42.1467C29.8374 41.4183 32.7658 39.8602 35.1684 37.625C37.669 35.2276 39.4841 32.1777 40.4184 28.8033C41.434 25.1337 41.6148 21.2747 40.9467 17.5225H21.4167V25.8168H32.7272C32.5011 27.1397 32.0167 28.4023 31.303 29.529C30.5892 30.6558 29.6607 31.6235 28.5731 32.3743C27.192 33.3097 25.6351 33.939 24.0023 34.222C22.3648 34.5337 20.6852 34.5337 19.0477 34.222C17.388 33.8706 15.8179 33.1693 14.4375 32.1627C12.2199 30.5555 10.5547 28.2722 9.67968 25.6388C8.78986 22.9559 8.78986 20.0474 9.67968 17.3646C10.3026 15.4841 11.3322 13.7719 12.6919 12.3558C14.2478 10.7055 16.2177 9.52583 18.3854 8.94627C20.553 8.36671 22.8347 8.40963 24.9802 9.07031C26.6561 9.59704 28.1887 10.5173 29.4558 11.7578C30.7311 10.4589 32.0042 9.15654 33.2752 7.85086C33.9314 7.14875 34.6467 6.48024 35.2931 5.76133C33.359 3.91863 31.0888 2.48479 28.6125 1.54195C24.1031 -0.134408 19.169 -0.179458 14.6311 1.4143Z" fill="white"/>
<path d="M14.6311 1.41428C19.1686 -0.180557 24.1027 -0.136692 28.6125 1.53858C31.0892 2.48782 33.3584 3.92857 35.2898 5.77811C34.6336 6.49702 33.9412 7.16889 33.2719 7.86764C31.9987 9.16884 30.7267 10.4656 29.4558 11.7578C28.1887 10.5173 26.6561 9.59702 24.9802 9.0703C22.8354 8.4073 20.5538 8.3619 18.3856 8.93909C16.2173 9.51628 14.2462 10.6938 12.6886 12.3423C11.329 13.7584 10.2993 15.4706 9.67641 17.3512L2.87437 11.9594C5.30909 7.01625 9.52464 3.23514 14.6311 1.41428Z" fill="#E33629"/>
<path d="M1.06969 17.3008C1.43529 15.4457 2.04227 13.6492 2.87438 11.9594L9.67641 17.3646C8.78658 20.0474 8.78658 22.9559 9.67641 25.6388C7.41016 27.4304 5.14282 29.231 2.87438 31.0406C0.79128 26.7954 0.155971 21.9586 1.06969 17.3008Z" fill="#F8BD00"/>
<path d="M21.4167 17.5191H40.9467C41.6148 21.2713 41.434 25.1304 40.4184 28.7999C39.4841 32.1743 37.669 35.2242 35.1684 37.6216C32.9733 35.868 30.7683 34.1279 28.5731 32.3743C29.6614 31.6227 30.5903 30.6539 31.3041 29.526C32.0179 28.398 32.502 27.1341 32.7272 25.8101H21.4167C21.4134 23.0487 21.4167 20.2839 21.4167 17.5191Z" fill="#587DBD"/>
<path d="M2.87109 31.0406C5.13953 29.249 7.40687 27.4483 9.67312 25.6388C10.5499 28.2732 12.2174 30.5565 14.4375 32.1627C15.8222 33.1647 17.3956 33.8603 19.0575 34.2052C20.695 34.5169 22.3747 34.5169 24.0122 34.2052C25.6449 33.9222 27.2018 33.2929 28.583 32.3575C30.7781 34.1111 32.9831 35.8513 35.1783 37.6049C32.776 39.8413 29.8476 41.4006 26.6798 42.1299C23.1834 42.9715 19.5396 42.9311 16.0617 42.0124C13.3111 41.2604 10.7417 39.9349 8.51484 38.1188C6.15779 36.2029 4.23267 33.7885 2.87109 31.0406Z" fill="#319F43"/>
</svg>
