<svg width="84" height="83" viewBox="0 0 84 83" fill="none" xmlns="http://www.w3.org/2000/svg">
<path d="M68.8153 50.1774C67.6467 50.1774 66.5156 50.3295 65.4258 50.5892L65.3227 50.4263L51.7797 29.045C54.7833 26.3381 56.6847 22.4167 56.6847 18.0388C56.6847 9.87397 50.1102 3.25488 42 3.25488C33.8898 3.25488 27.3153 9.87381 27.3153 18.0388C27.3153 22.4167 29.2165 26.3381 32.2203 29.045L18.6773 50.4263L18.5742 50.5892C17.4844 50.3295 16.3533 50.1774 15.1845 50.1774C7.07467 50.1774 0.5 56.7964 0.5 64.9613C0.5 73.1263 7.07451 79.7452 15.1847 79.7452C23.2948 79.7452 29.8692 73.1263 29.8692 64.9613C29.8692 59.3674 26.7818 54.5012 22.2303 51.99L35.3835 31.2241C37.3736 32.2384 39.6168 32.8225 42 32.8225C44.3832 32.8225 46.6266 32.2384 48.6167 31.2241L61.7697 51.99C57.2182 54.5011 54.1308 59.3674 54.1308 64.9613C54.1308 73.1261 60.7053 79.7452 68.8153 79.7452C76.9253 79.7452 83.5 73.1263 83.5 64.9613C83.5 56.7964 76.9255 50.1774 68.8153 50.1774ZM15.1471 71.9427C11.3668 71.9427 8.30232 68.8784 8.30232 65.0981C8.30232 61.3179 11.3668 58.2534 15.1471 58.2534C18.9273 58.2534 21.9916 61.3179 21.9916 65.0981C21.9916 68.8784 18.9273 71.9427 15.1471 71.9427Z" fill="#51B1FF"/>
</svg>
