<svg width="25" height="24" viewBox="0 0 25 24" fill="none" xmlns="http://www.w3.org/2000/svg">
<path d="M22.25 21H2.75C1.505 21 0.5 19.995 0.5 18.75V5.25C0.5 4.005 1.505 3 2.75 3H22.25C23.495 3 24.5 4.005 24.5 5.25V18.75C24.5 19.995 23.495 21 22.25 21ZM2.75 4.5C2.33 4.5 2 4.83 2 5.25V18.75C2 19.17 2.33 19.5 2.75 19.5H22.25C22.67 19.5 23 19.17 23 18.75V5.25C23 4.83 22.67 4.5 22.25 4.5H2.75Z" fill="black"/>
<path d="M20.285 9.64469H19.16C18.815 9.64469 18.56 9.74969 18.395 10.0947L16.235 15.0147H17.765C17.765 15.0147 18.035 14.3547 18.08 14.2047H19.955C20.015 14.3847 20.135 14.9997 20.135 14.9997H21.5L20.285 9.65969V9.64469ZM18.5 13.0947C18.635 12.7797 19.085 11.5947 19.085 11.5947C19.085 11.6247 19.22 11.2797 19.265 11.0997L19.37 11.5797L19.715 13.1397H18.5V13.1097V13.0947ZM16.34 13.2447C16.34 14.3547 15.335 15.0897 13.79 15.0897C13.13 15.0897 12.5 14.9547 12.155 14.8047L12.365 13.5897L12.545 13.6647C13.025 13.8747 13.34 13.9497 13.91 13.9497C14.33 13.9497 14.78 13.7847 14.78 13.4247C14.78 13.1847 14.6 13.0347 14.015 12.7647C13.46 12.4947 12.725 12.0747 12.725 11.3247C12.725 10.2747 13.745 9.55469 15.2 9.55469C15.755 9.55469 16.22 9.65969 16.52 9.79469L16.31 10.9497L16.205 10.8447C15.935 10.7397 15.605 10.6347 15.095 10.6347C14.54 10.6647 14.285 10.9047 14.285 11.1147C14.285 11.3547 14.6 11.5347 15.095 11.7747C15.935 12.1647 16.325 12.6147 16.325 13.2447H16.34ZM3.5 9.68969L3.53 9.58469H5.795C6.11 9.58469 6.35 9.68969 6.425 10.0347L6.92 12.4047C6.425 11.1447 5.255 10.1097 3.5 9.68969Z" fill="black"/>
<path d="M10.1 9.64523L7.80499 14.9852H6.24499L4.92499 10.5152C5.86999 11.1152 6.66499 12.0752 6.94999 12.7202L7.11499 13.2752L8.53999 9.61523H10.1V9.64523ZM10.715 9.61523H12.155L11.24 14.9852H9.79999L10.715 9.61523Z" fill="black"/>
</svg>
