<svg width="24" height="25" viewBox="0 0 24 25" fill="none" xmlns="http://www.w3.org/2000/svg">
<path d="M19.6 21.5L13.3 15.2C12.8 15.6 12.225 15.9167 11.575 16.15C10.925 16.3833 10.2333 16.5 9.5 16.5C7.68333 16.5 6.146 15.8707 4.888 14.612C3.63 13.3533 3.00067 11.816 3 10C2.99933 8.184 3.62867 6.64667 4.888 5.388C6.14733 4.12933 7.68467 3.5 9.5 3.5C11.3153 3.5 12.853 4.12933 14.113 5.388C15.373 6.64667 16.002 8.184 16 10C16 10.7333 15.8833 11.425 15.65 12.075C15.4167 12.725 15.1 13.3 14.7 13.8L21 20.1L19.6 21.5ZM9.5 14.5C10.75 14.5 11.8127 14.0627 12.688 13.188C13.5633 12.3133 14.0007 11.2507 14 10C13.9993 8.74933 13.562 7.687 12.688 6.813C11.814 5.939 10.7513 5.50133 9.5 5.5C8.24867 5.49867 7.18633 5.93633 6.313 6.813C5.43967 7.68967 5.002 8.752 5 10C4.998 11.248 5.43567 12.3107 6.313 13.188C7.19033 14.0653 8.25267 14.5027 9.5 14.5Z" fill="black"/>
</svg>
