<svg width="84" height="83" viewBox="0 0 84 83" fill="none" xmlns="http://www.w3.org/2000/svg">
<path d="M12.7079 74.4578C12.2162 74.916 11.5659 75.1654 10.8939 75.1535C10.222 75.1417 9.58086 74.8695 9.10564 74.3942C8.63042 73.919 8.35821 73.2779 8.34635 72.6059C8.3345 71.934 8.58392 71.2837 9.04208 70.792L15.9933 63.8373C13.3166 60.1265 12.8532 56.0041 13.3892 52.4594C14.0048 48.4062 15.9587 44.851 17.6879 43.1219L22.8754 37.9344C23.3617 37.4486 24.021 37.1758 24.7083 37.1758C25.3957 37.1758 26.0549 37.4486 26.5412 37.9344L45.5621 56.9552C45.8031 57.1961 45.9943 57.4821 46.1248 57.7969C46.2552 58.1117 46.3224 58.4491 46.3224 58.7898C46.3224 59.1306 46.2552 59.468 46.1248 59.7828C45.9943 60.0976 45.8031 60.3836 45.5621 60.6245L40.3746 65.812C38.6454 67.5411 35.0937 69.4951 31.0405 70.1107C27.4957 70.6467 23.3734 70.1798 19.6626 67.5031L12.7079 74.4578ZM38.6454 36.4161C38.408 36.671 38.1216 36.8754 37.8034 37.0171C37.4853 37.1589 37.1418 37.2351 36.7936 37.2413C36.4453 37.2474 36.0994 37.1834 35.7764 37.0529C35.4534 36.9225 35.16 36.7283 34.9137 36.482C34.6674 36.2357 34.4733 35.9423 34.3428 35.6193C34.2124 35.2964 34.1483 34.9504 34.1545 34.6022C34.1606 34.2539 34.2368 33.9104 34.3786 33.5923C34.5204 33.2741 34.7247 32.9878 34.9796 32.7503L40.0633 27.6666L38.4379 26.0411C37.9522 25.5548 37.6794 24.8956 37.6794 24.2082C37.6794 23.5209 37.9522 22.8616 38.4379 22.3753L43.6254 17.1878C45.3546 15.4586 48.9063 13.5047 52.9595 12.8891C56.5042 12.3531 60.6266 12.8199 64.3374 15.4967L71.2886 8.54198C71.5278 8.29414 71.8139 8.09641 72.1303 7.96032C72.4467 7.82424 72.787 7.75253 73.1314 7.74938C73.4758 7.74622 73.8173 7.81169 74.1362 7.94195C74.455 8.07222 74.7447 8.26468 74.9883 8.50809C75.232 8.75151 75.4247 9.04102 75.5553 9.35972C75.6858 9.67842 75.7516 10.0199 75.7488 10.3643C75.7459 10.7087 75.6746 11.0491 75.5388 11.3656C75.403 11.6821 75.2055 11.9684 74.9579 12.2078L68.0067 19.166C70.6834 22.8733 71.1538 26.9956 70.6143 30.5439C69.9987 34.5936 68.0447 38.1453 66.3155 39.8745L61.128 45.062C60.6417 45.5477 59.9825 45.8205 59.2951 45.8205C58.6078 45.8205 57.9485 45.5477 57.4622 45.062L55.8368 43.4366L50.753 48.5203C50.5156 48.7751 50.2292 48.9795 49.9111 49.1213C49.5929 49.2631 49.2494 49.3393 48.9012 49.3454C48.5529 49.3516 48.207 49.2875 47.884 49.1571C47.561 49.0266 47.2677 48.8325 47.0214 48.5862C46.7751 48.3399 46.5809 48.0465 46.4504 47.7235C46.32 47.4005 46.2559 47.0546 46.2621 46.7063C46.2682 46.3581 46.3444 46.0146 46.4862 45.6965C46.628 45.3783 46.8324 45.0919 47.0872 44.8545L52.171 39.7707L43.7326 31.3324L38.6454 36.4161Z" fill="#51B1FF"/>
</svg>
