<svg width="82" height="83" viewBox="0 0 82 83" fill="none" xmlns="http://www.w3.org/2000/svg">
<path d="M20.1499 24.2099C20.1499 20.8143 21.1605 17.4949 23.0538 14.6715C24.9472 11.8482 27.6383 9.64761 30.7869 8.34816C33.9355 7.0487 37.4001 6.7087 40.7426 7.37116C44.0851 8.03362 47.1553 9.66878 49.5651 12.0699C51.975 14.4709 53.6161 17.5301 54.2809 20.8605C54.9458 24.1909 54.6045 27.643 53.3004 30.7801C51.9962 33.9173 49.7876 36.5987 46.954 38.4852C44.1204 40.3717 40.7889 41.3786 37.3809 41.3786C32.811 41.3786 28.4282 39.5698 25.1967 36.35C21.9653 33.1303 20.1499 28.7634 20.1499 24.2099ZM46.3476 69.9034C46.3554 67.9144 47.0975 65.9979 48.4324 64.519C49.7672 63.0401 51.6015 62.1022 53.5857 61.8842C53.7717 60.0449 54.5968 58.3283 55.9185 57.031C57.2402 55.7338 58.9753 54.9375 60.8238 54.7799C59.1013 52.301 56.8004 50.2761 54.1188 48.8792C51.4372 47.4824 48.4552 46.7553 45.4293 46.7607H29.3326C24.3203 46.7664 19.5149 48.7528 15.9706 52.2842C12.4264 55.8156 10.4327 60.6036 10.427 65.5978V76.9539C10.4234 77.3082 10.4908 77.6598 10.6252 77.9879C10.7597 78.316 10.9585 78.6141 11.21 78.8647C11.4615 79.1153 11.7607 79.3134 12.09 79.4474C12.4193 79.5813 12.7721 79.6485 13.1278 79.6449H54.0178C53.7674 79.1216 53.6207 78.5551 53.5857 77.9764C51.5932 77.7551 49.7528 76.8089 48.4171 75.3191C47.0815 73.8294 46.3445 71.901 46.3476 69.9034ZM68.8722 67.2339H64.3673V62.7399C64.3673 62.0262 64.0827 61.3417 63.5762 60.8371C63.0697 60.3324 62.3828 60.0489 61.6665 60.0489C60.9502 60.0489 60.2632 60.3324 59.7567 60.8371C59.2502 61.3417 58.9657 62.0262 58.9657 62.7399V67.2339H54.4554C53.7391 67.2339 53.0521 67.5174 52.5456 68.0221C52.0391 68.5268 51.7546 69.2112 51.7546 69.9249C51.7546 70.6386 52.0391 71.3231 52.5456 71.8278C53.0521 72.3324 53.7391 72.6159 54.4554 72.6159H58.9657V77.1046C58.9657 77.8183 59.2502 78.5027 59.7567 79.0074C60.2632 79.5121 60.9502 79.7956 61.6665 79.7956C62.3828 79.7956 63.0697 79.5121 63.5762 79.0074C64.0827 78.5027 64.3673 77.8183 64.3673 77.1046V72.6159H68.8722C69.5885 72.6159 70.2755 72.3324 70.782 71.8278C71.2884 71.3231 71.573 70.6386 71.573 69.9249C71.573 69.2112 71.2884 68.5268 70.782 68.0221C70.2755 67.5174 69.5885 67.2339 68.8722 67.2339Z" fill="#51B1FF"/>
</svg>
