<svg width="84" height="84" viewBox="0 0 84 84" fill="none" xmlns="http://www.w3.org/2000/svg">
<path d="M7.41667 62.8005C6.49946 62.8005 5.61982 63.1649 4.97126 63.8135C4.3227 64.462 3.95834 65.3417 3.95834 66.2589V71.4464C3.95834 71.6757 4.04943 71.8956 4.21157 72.0577C4.37371 72.2199 4.59362 72.311 4.82292 72.311H16.9271C17.1564 72.311 17.3763 72.2199 17.5384 72.0577C17.7006 71.8956 17.7917 71.6757 17.7917 71.4464V66.2589C17.7917 65.3417 17.4273 64.462 16.7787 63.8135C16.1302 63.1649 15.2505 62.8005 14.3333 62.8005H7.41667ZM28.1667 52.4255C27.2495 52.4255 26.3698 52.7899 25.7213 53.4385C25.0727 54.087 24.7083 54.9667 24.7083 55.8839V71.4464C24.7083 71.6757 24.7994 71.8956 24.9616 72.0577C25.1237 72.2199 25.3436 72.311 25.5729 72.311H37.6771C37.9064 72.311 38.1263 72.2199 38.2884 72.0577C38.4506 71.8956 38.5417 71.6757 38.5417 71.4464V55.8839C38.5417 54.9667 38.1773 54.087 37.5287 53.4385C36.8802 52.7899 36.0005 52.4255 35.0833 52.4255H28.1667ZM48.9167 40.3214C47.9995 40.3214 47.1198 40.6857 46.4713 41.3343C45.8227 41.9829 45.4583 42.8625 45.4583 43.7797V71.4464C45.4583 71.6757 45.5494 71.8956 45.7116 72.0577C45.8737 72.2199 46.0936 72.311 46.3229 72.311H58.4271C58.6564 72.311 58.8763 72.2199 59.0384 72.0577C59.2006 71.8956 59.2917 71.6757 59.2917 71.4464V43.7797C59.2917 42.8625 58.9273 41.9829 58.2788 41.3343C57.6302 40.6857 56.7505 40.3214 55.8333 40.3214H48.9167ZM67.0729 72.311H79.1771C79.4064 72.311 79.6263 72.2199 79.7884 72.0577C79.9506 71.8956 80.0417 71.6757 80.0417 71.4464V29.9464C80.0417 29.0292 79.6773 28.1495 79.0288 27.501C78.3802 26.8524 77.5005 26.488 76.5833 26.488H69.6667C68.7495 26.488 67.8698 26.8524 67.2213 27.501C66.5727 28.1495 66.2083 29.0292 66.2083 29.9464V71.4464C66.2083 71.6757 66.2994 71.8956 66.4616 72.0577C66.6237 72.2199 66.8436 72.311 67.0729 72.311ZM62.9921 15.5597L64.0642 17.1505C64.2991 17.5035 64.618 17.7925 64.9922 17.9917C65.3665 18.1909 65.7844 18.294 66.2083 18.2918C66.6486 18.2758 67.0773 18.1465 67.453 17.9162C67.8286 17.686 68.1385 17.3627 68.3525 16.9776L75.2692 4.87345C75.5234 4.46315 75.6581 3.99007 75.6581 3.50741C75.6581 3.02475 75.5234 2.55166 75.2692 2.14136C75.0136 1.73453 74.6458 1.41031 74.2101 1.20781C73.7745 1.00531 73.2895 0.933182 72.8138 1.00011L58.9804 2.72928C58.5421 2.78471 58.1253 2.95116 57.7694 3.21286C57.4135 3.47456 57.1303 3.82282 56.9467 4.22464C56.7631 4.62645 56.6852 5.0685 56.7203 5.50887C56.7555 5.94924 56.9025 6.37333 57.1475 6.74095L58.185 8.33178C58.2489 8.42405 58.2933 8.52831 58.3158 8.63826C58.3382 8.74821 58.3381 8.86157 58.3154 8.97147C58.2928 9.08138 58.2481 9.18556 58.1841 9.27771C58.1201 9.36986 58.038 9.44807 57.9429 9.50761L8.97292 42.2234C8.59276 42.4747 8.266 42.7986 8.01142 43.1765C7.75684 43.5545 7.57946 43.979 7.48948 44.4257C7.39949 44.8724 7.39868 45.3325 7.48708 45.7795C7.57548 46.2265 7.75135 46.6517 8.00459 47.0305C8.32182 47.4999 8.74949 47.8841 9.24999 48.1494C9.7505 48.4147 10.3085 48.5531 10.875 48.5522C11.5549 48.56 12.2201 48.3544 12.7771 47.9643L61.7817 15.3176C61.8767 15.2529 61.9836 15.2079 62.0963 15.185C62.2089 15.1622 62.325 15.162 62.4377 15.1846C62.5504 15.2071 62.6575 15.2519 62.7527 15.3163C62.8479 15.3807 62.9293 15.4635 62.9921 15.5597ZM3.95834 84.0001H80.0417C80.8634 83.9983 81.6577 83.7039 82.2821 83.1697C82.9065 82.6354 83.3203 81.8963 83.4494 81.0848C83.5784 80.2732 83.4142 79.4422 82.9862 78.7407C82.5582 78.0391 81.8944 77.513 81.1138 77.2564C80.7677 77.1426 80.4059 77.0843 80.0417 77.0835H3.95834C3.5941 77.0843 3.23228 77.1426 2.88625 77.2564C2.10558 77.513 1.44178 78.0391 1.0138 78.7407C0.585819 79.4422 0.42163 80.2732 0.550649 81.0848C0.679668 81.8963 1.09346 82.6354 1.71789 83.1697C2.34232 83.7039 3.13658 83.9983 3.95834 84.0001Z" fill="#51B1FF"/>
</svg>
